<?xml version="1.0" encoding="UTF-8" standalone="no"?>
<!-- Created with Inkscape (http://www.inkscape.org/) -->

<svg width="512" height="512" viewBox="0 0 512 512" version="1.1" id="svg1" xml:space="preserve"
  xmlns="http://www.w3.org/2000/svg" xmlns:svg="http://www.w3.org/2000/svg">
  <defs id="defs1" />
  <g id="layer1">
    <path style="fill:#000000;stroke-width:2.1162"
      d="M 116.18513,414.92954 C 92.373388,412.20515 72.620113,392.50221 68.80723,367.67241 68.47285,365.49486 68.349581,326.37209 68.447583,253.5286 l 0.149193,-110.8307 1.09892,-4.03019 c 6.065004,-22.24272 22.973642,-37.71616 45.143614,-41.311858 6.89134,-1.117691 275.17224,-1.130263 282.45286,-0.0127 21.92201,3.363368 38.49583,18.600388 44.95073,41.325048 l 1.14475,4.03021 0.13481,110.80908 c 0.14707,121.01799 0.28473,114.71614 -2.69916,123.64882 -6.86678,20.55678 -23.33193,34.41771 -44.6033,37.54865 -6.02553,0.88693 -272.37915,1.10102 -280.03475,0.22511 z m 25.1888,-33.7367 c 18.59302,-4.28218 25.09011,-28.12393 11.3129,-41.51386 -13.36708,-12.9913 -36.03631,-6.48715 -40.74669,11.69084 -4.49984,17.36546 11.80273,33.88364 29.43379,29.82302 z m -11.58685,-12.55143 c -1.48206,-1.48207 -1.55723,-20.50499 -0.0863,-21.83619 1.44418,-1.30695 2.90144,-1.00359 6.53622,1.36071 1.85552,1.20693 5.30063,3.29066 7.6558,4.63054 8.57908,4.88069 8.64887,4.66078 -3.845,12.11427 -8.64631,5.15812 -8.78342,5.20799 -10.26074,3.73067 z m 252.62267,12.32678 c 18.75311,-4.88456 24.71433,-28.0708 10.69273,-41.58958 -13.02426,-12.55722 -35.31027,-6.1774 -40.21552,11.51252 -4.96995,17.92316 11.55399,34.75733 29.52279,30.07706 z m -14.80427,-12.29062 c -1.02282,-1.02282 -1.05918,-1.46158 -0.92819,-11.20174 l 0.13628,-10.13721 1.31527,-0.98147 c 1.57173,-1.17286 1.16326,-1.346 12.47556,5.28881 10.45834,6.13396 10.50894,5.63258 -1.26035,12.48443 -10.14918,5.90867 -10.3135,5.97234 -11.73863,4.54718 z m -166.40818,9.88928 c 2.41838,-2.20422 1.08881,-6.46904 -2.3013,-7.3819 -4.62523,-1.24545 -8.09822,1.8526 -6.57546,5.86562 1.20062,3.16407 6.14269,4.00826 8.87676,1.51628 z m 24.65257,0.0623 c 2.43144,-2.28422 0.76483,-7.37318 -2.46352,-7.5222 -5.23369,-0.2416 -7.71265,2.00893 -6.44471,5.85082 0.9914,3.00399 6.40795,4.02026 8.90823,1.67138 z m 35.42273,0.0878 c 1.4852,-1.4852 1.36788,-4.72322 -0.22899,-6.3201 -3.32652,-3.3265 -11.35787,-1.17293 -11.35787,3.04555 0,4.04017 8.4369,6.42452 11.58686,3.27455 z m 61.00052,0.36181 c 2.32352,-1.78394 2.37257,-5.11843 0.10157,-6.90474 -2.08485,-1.63998 -33.49603,-1.56721 -35.25116,0.0817 -1.63729,1.53815 -1.60309,4.55863 0.0704,6.2323 l 1.23656,1.23652 16.52155,-0.0169 c 12.19273,-0.0127 16.73098,-0.17691 17.32087,-0.62972 z m -105.93642,-14.054 c 1.19196,-0.56789 2.52154,-1.57339 2.95465,-2.2344 l 0.7875,-1.20185 h 47.28904 47.28905 l 1.64522,-1.47001 c 1.4125,-1.26207 1.64522,-1.80238 1.64522,-3.81966 0,-2.01725 -0.23272,-2.55756 -1.64522,-3.81962 l -1.64522,-1.47002 h -46.36142 -46.36145 l -2.62281,-2.6817 c -7.19033,-7.35175 -18.49177,-2.89303 -18.49177,7.2955 0,8.2034 7.93794,13.01296 15.51721,9.40176 z m -17.18183,-32.12934 c 1.82346,-1.11184 2.47395,-3.26704 2.01618,-6.68 -0.79508,-5.9277 -8.37722,-6.35406 -9.60885,-0.54035 -1.25993,5.94728 3.01433,10.01194 7.59267,7.22035 z m 25.49803,-0.45796 c 1.42838,-1.4284 1.7557,-5.87302 0.61024,-8.28691 -2.10628,-4.43863 -8.44136,-3.06253 -8.85367,1.92321 -0.5477,6.62252 4.26744,10.33966 8.24343,6.3637 z m 25.49797,0.13904 c 2.84995,-2.39808 1.93211,-9.37609 -1.41565,-10.76278 -3.78416,-1.56744 -6.60612,0.87837 -6.60612,5.72565 0,5.66253 4.16807,8.2798 8.02177,5.03713 z m 24.74138,0.5394 c 2.68374,-1.38782 3.19162,-8.08358 0.77106,-10.16565 -2.62771,-2.26029 -6.78625,-1.66908 -7.84485,1.11528 -2.28184,6.00168 2.10806,11.61822 7.07379,9.05037 z m 25.47247,-0.79303 c 3.23265,-3.03689 0.71646,-10.73429 -3.5089,-10.73429 -3.3885,0 -4.57787,1.46809 -4.74703,5.85951 -0.22797,5.91704 4.30039,8.59085 8.25593,4.87478 z m 20.87491,0.79303 c 1.68333,-0.87047 2.25013,-2.4256 2.15891,-5.92328 -0.20591,-7.89088 -9.73327,-7.67396 -9.73327,0.22163 0,5.09125 3.56511,7.77491 7.57436,5.70165 z m 65.80051,-27.64558 c 7.61396,-2.02729 14.46701,-8.69563 17.39843,-16.92944 l 1.16582,-3.27454 0.13903,-63.93334 c 0.15321,-70.4519 0.20041,-69.21844 -2.89651,-75.50929 -2.94038,-5.9728 -9.67816,-11.62262 -15.80673,-13.25439 -4.90763,-1.30671 -258.67743,-1.00801 -262.94301,0.3095 -8.78931,2.71474 -15.19587,10.07532 -17.1878,19.74728 -1.35608,6.58449 -1.19678,128.65955 0.17479,134.02269 2.38009,9.30609 9.56884,17.10843 17.47254,18.96391 3.49156,0.81968 259.3915,0.68087 262.4834,-0.14242 z m -139.1176,-18.78394 c -56.93903,-7.24245 -80.47663,-76.03022 -39.58547,-115.68702 43.92571,-42.59973 117.72317,-9.66719 115.24888,51.43045 -1.56261,38.58529 -37.50611,69.11004 -75.66341,64.25657 z m -11.68778,-28.19663 c 0.88673,-0.45768 4.78605,-2.80311 8.66511,-5.21206 3.87906,-2.40893 15.32738,-9.44072 25.44068,-15.62616 29.02946,-17.75487 28.8711,-16.79631 5.28965,-32.01844 -7.20399,-4.65026 -15.81856,-10.21721 -19.14348,-12.37103 -31.92869,-20.68255 -29.60013,-22.90439 -29.37092,28.02473 0.14474,32.14857 0.19722,33.81989 1.10572,35.16012 1.87792,2.77053 5.04103,3.57691 8.01324,2.04284 z"
      id="path1" />
  </g>
</svg>